<svg width="69.2" height="16" viewBox="0 0 69.2 16" fill="none" xmlns="http://www.w3.org/2000/svg">
<g id="svg-image-1 1">
<path id="Vector" d="M16.1897 8.69427C14.583 8.69427 13.2129 7.29459 13.2129 5.48091C13.2129 3.66725 14.583 2.26758 16.1897 2.26758C17.6485 2.26758 18.644 3.36169 18.9299 4.53467H17.8653C17.6682 3.8841 17.0965 3.25326 16.1897 3.25326C15.1547 3.25326 14.238 4.17979 14.238 5.48091C14.238 6.78203 15.1547 7.69871 16.1897 7.69871C17.1063 7.69871 17.6781 7.07771 17.9047 6.42719H18.9693C18.6835 7.60015 17.6781 8.69427 16.1897 8.69427Z" fill="#594500"/>
<path id="Vector_2" d="M21.8031 8.69388C20.5908 8.69388 19.5657 7.64904 19.5657 6.33808C19.5657 5.02712 20.5908 3.98228 21.8031 3.98228C23.0155 3.98228 24.0308 5.02712 24.0308 6.33808C24.0308 7.64904 23.0155 8.69388 21.8031 8.69388ZM21.8031 7.78704C22.4931 7.78704 23.055 7.1956 23.055 6.33808C23.055 5.4904 22.4931 4.89896 21.8031 4.89896C21.1033 4.89896 20.5415 5.4904 20.5415 6.33808C20.5415 7.1956 21.1033 7.78704 21.8031 7.78704Z" fill="#594500"/>
<path id="Vector_3" d="M26.6495 8.69388C25.5948 8.69388 24.8457 7.91516 24.8457 6.73236V4.09072H25.8215V6.66336C25.8215 7.32376 26.2552 7.78704 26.8466 7.78704C27.4578 7.78704 27.8914 7.32376 27.8914 6.66336V4.09072H28.8574V8.58544H28.128L27.9506 8.08272H27.9112C27.7633 8.27 27.3099 8.69388 26.6495 8.69388Z" fill="#594500"/>
<path id="Vector_4" d="M30.9622 8.58558H29.9863V4.09086H30.7157L30.8932 4.59354H30.9424C31.0706 4.40626 31.4747 3.98242 32.0464 3.98242C32.2041 3.98242 32.3125 3.99228 32.4308 4.0317V4.99766C32.3027 4.9681 32.1844 4.95826 32.0267 4.95826C31.3958 4.95826 30.9622 5.39194 30.9622 6.1115V8.58558Z" fill="#594500"/>
<path id="Vector_5" d="M34.4979 8.69388C33.4334 8.69388 32.7631 8.01372 32.7138 7.21532H33.6798C33.7094 7.6096 34.015 7.8856 34.4979 7.8856C34.9809 7.8856 35.2273 7.63916 35.2273 7.35332C35.2273 6.45636 32.8223 6.87036 32.8223 5.31296C32.8223 4.57368 33.4235 3.98228 34.4585 3.98228C35.4442 3.98228 36.0849 4.62296 36.144 5.4214H35.178C35.1288 5.04684 34.9021 4.8004 34.4585 4.8004C34.0248 4.8004 33.7981 5.0074 33.7981 5.27352C33.7981 6.12124 36.1933 5.71708 36.1933 7.30404C36.1933 8.0926 35.592 8.69388 34.4979 8.69388Z" fill="#594500"/>
<path id="Vector_6" d="M41.1723 6.23966C41.1723 6.46634 41.1523 6.62406 41.1227 6.72262H37.8011C37.9293 7.40274 38.4024 7.81674 39.0431 7.81674C39.5458 7.81674 39.8513 7.5703 40.0091 7.34362H41.0243C40.7679 7.99418 40.0387 8.69402 39.0529 8.69402C37.811 8.69402 36.8154 7.67874 36.8154 6.33822C36.8154 5.02726 37.8405 3.98242 39.0332 3.98242C40.2359 3.98242 41.1723 4.9681 41.1723 6.23966ZM39.0332 4.8597C38.432 4.8597 37.9293 5.29338 37.7913 5.98338H40.2359C40.1175 5.32294 39.6444 4.8597 39.0332 4.8597Z" fill="#594500"/>
<path id="Vector_7" d="M46.7404 8.58581H45.5476L44.2172 6.21028H43.192V8.58581H42.1572V2.37598H44.5524C45.7252 2.37598 46.5928 3.20395 46.5928 4.30792C46.5928 5.12604 46.0604 5.79633 45.252 6.07229L46.7404 8.58581ZM44.5228 3.34195H43.192V5.26404H44.5228C45.124 5.26404 45.5576 4.85992 45.5576 4.31776C45.5576 3.75594 45.124 3.34195 44.5228 3.34195Z" fill="#594500"/>
<path id="Vector_8" d="M51.5872 6.23952C51.5872 6.4662 51.5672 6.62392 51.5376 6.72248H48.216C48.344 7.4026 48.8172 7.8166 49.458 7.8166C49.9608 7.8166 50.2664 7.57016 50.424 7.34348H51.4392C51.1828 7.99404 50.4536 8.69388 49.468 8.69388C48.226 8.69388 47.2304 7.6786 47.2304 6.33808C47.2304 5.02712 48.2556 3.98228 49.448 3.98228C50.6508 3.98228 51.5872 4.96796 51.5872 6.23952ZM49.448 4.85956C48.8468 4.85956 48.344 5.29324 48.206 5.98324H50.6508C50.5324 5.3228 50.0592 4.85956 49.448 4.85956Z" fill="#594500"/>
<path id="Vector_9" d="M53.4297 10.1824H52.4541V4.09086H53.1833L53.3609 4.59354H53.4101C53.5381 4.43582 54.0313 3.98242 54.7505 3.98242C55.8545 3.98242 56.8205 4.9681 56.8205 6.33822C56.8205 7.7083 55.8545 8.69402 54.7505 8.69402C54.0605 8.69402 53.5777 8.27014 53.4793 8.11246H53.4297V10.1824ZM54.6421 7.78718C55.2829 7.78718 55.8449 7.19574 55.8449 6.33822C55.8449 5.48066 55.2829 4.8991 54.6421 4.8991C53.9917 4.8991 53.4297 5.48066 53.4297 6.33822C53.4297 7.19574 53.9917 7.78718 54.6421 7.78718Z" fill="#594500"/>
<path id="Vector_10" d="M59.6712 8.69388C58.4588 8.69388 57.4336 7.64904 57.4336 6.33808C57.4336 5.02712 58.4588 3.98228 59.6712 3.98228C60.8836 3.98228 61.8988 5.02712 61.8988 6.33808C61.8988 7.64904 60.8836 8.69388 59.6712 8.69388ZM59.6712 7.78704C60.3612 7.78704 60.9232 7.1956 60.9232 6.33808C60.9232 5.4904 60.3612 4.89896 59.6712 4.89896C58.9712 4.89896 58.4096 5.4904 58.4096 6.33808C58.4096 7.1956 58.9712 7.78704 59.6712 7.78704Z" fill="#594500"/>
<path id="Vector_11" d="M63.7285 8.58558H62.7529V4.09086H63.4821L63.6597 4.59354H63.7089C63.8373 4.40626 64.2413 3.98242 64.8129 3.98242C64.9705 3.98242 65.0789 3.99228 65.1973 4.0317V4.99766C65.0693 4.9681 64.9509 4.95826 64.7933 4.95826C64.1625 4.95826 63.7285 5.39194 63.7285 6.1115V8.58558Z" fill="#594500"/>
<path id="Vector_12" d="M67.6544 8.69388C66.846 8.69388 66.2448 8.12216 66.2448 7.12664V4.96796H65.5156V4.14984H65.8308C66.1856 4.14984 66.3732 3.96256 66.3732 3.61757V2.93745H67.2208V4.09072H68.1868V4.96796H67.2208V7.05764C67.2208 7.55048 67.4768 7.76732 67.8812 7.76732C67.9996 7.76732 68.098 7.75748 68.1868 7.71804V8.60516C68.0784 8.64456 67.9008 8.69388 67.6544 8.69388Z" fill="#594500"/>
<path id="Vector_13" d="M47.4304 14.4031C47.0708 14.4031 46.8244 14.1813 46.7604 14.0975H46.7404L46.652 14.3489H46.2872V11.2439H46.7752V12.3381H46.7948C46.8488 12.2592 47.0904 12.0473 47.4304 12.0473C47.9876 12.0473 48.4656 12.5401 48.4656 13.2252C48.4656 13.9102 47.9876 14.4031 47.4304 14.4031ZM47.3764 13.9497C47.7016 13.9497 47.9776 13.654 47.9776 13.2252C47.9776 12.7964 47.7016 12.5056 47.3764 12.5056C47.0512 12.5056 46.7752 12.7964 46.7752 13.2252C46.7752 13.654 47.0512 13.9497 47.3764 13.9497Z" fill="#594500"/>
<path id="Vector_14" d="M49.7143 13.6984L50.2863 12.1016H50.7887L49.8575 14.4722C49.6503 15.0093 49.4335 15.172 49.1479 15.172C49.0491 15.172 48.9655 15.1473 48.9063 15.1276V14.6841C48.9507 14.7038 48.9999 14.7136 49.0639 14.7136C49.2315 14.7136 49.3399 14.6446 49.4139 14.4278L49.4731 14.2849L48.5859 12.1016H49.1131L49.7143 13.6984Z" fill="#594500"/>
<path id="Vector_15" d="M53.0334 14.4027C52.4274 14.4027 51.915 13.8802 51.915 13.2248C51.915 12.5693 52.4274 12.0469 53.0334 12.0469C53.5906 12.0469 53.9798 12.4904 54.0686 12.9291H53.5806C53.5314 12.7467 53.3538 12.5052 53.0334 12.5052C52.6838 12.5052 52.4026 12.8009 52.4026 13.2248C52.4026 13.6536 52.6838 13.9492 53.0334 13.9492C53.3538 13.9492 53.5314 13.7028 53.5806 13.5205H54.0686C53.9798 13.9591 53.5906 14.4027 53.0334 14.4027Z" fill="#594500"/>
<path id="Vector_16" d="M55.3258 12.0469C55.8726 12.0469 56.2226 12.4165 56.2226 12.9586V14.3484H55.8578L55.769 14.0971H55.7494C55.6558 14.2104 55.4438 14.4027 55.089 14.4027C54.6506 14.4027 54.335 14.102 54.335 13.7324C54.335 13.2839 54.759 12.998 55.3798 12.998H55.7346V12.9241C55.7346 12.6531 55.567 12.4855 55.3206 12.4855C55.0742 12.4855 54.951 12.6432 54.9214 12.7861H54.4386C54.473 12.4116 54.7834 12.0469 55.3258 12.0469ZM55.1878 13.9936C55.5278 13.9936 55.7346 13.757 55.7346 13.4909V13.3529H55.3798C55.0002 13.3529 54.823 13.486 54.823 13.693C54.823 13.8655 54.951 13.9936 55.1878 13.9936Z" fill="#594500"/>
<path id="Vector_17" d="M57.2474 14.3484H56.7598V12.1011H57.1242L57.213 12.3524H57.2378C57.3018 12.2588 57.5038 12.0469 57.7898 12.0469C57.8686 12.0469 57.9226 12.0518 57.9818 12.0715V12.5545C57.9178 12.5397 57.8586 12.5348 57.7798 12.5348C57.4646 12.5348 57.2474 12.7516 57.2474 13.1114V14.3484Z" fill="#594500"/>
<path id="Vector_18" d="M60.2731 13.1755C60.2731 13.2888 60.2631 13.3677 60.2483 13.417H58.5875C58.6515 13.757 58.8883 13.964 59.2087 13.964C59.4599 13.964 59.6127 13.8408 59.6915 13.7275H60.1991C60.0711 14.0528 59.7063 14.4027 59.2135 14.4027C58.5927 14.4027 58.0947 13.895 58.0947 13.2248C58.0947 12.5693 58.6071 12.0469 59.2035 12.0469C59.8051 12.0469 60.2731 12.5397 60.2731 13.1755ZM59.2035 12.4855C58.9031 12.4855 58.6515 12.7024 58.5827 13.0474H59.8051C59.7459 12.7171 59.5091 12.4855 59.2035 12.4855Z" fill="#594500"/>
<path id="Vector_19" d="M62.7565 13.1755C62.7565 13.2888 62.7465 13.3677 62.7317 13.417H61.0709C61.1349 13.757 61.3713 13.964 61.6917 13.964C61.9433 13.964 62.0961 13.8408 62.1749 13.7275H62.6825C62.5545 14.0528 62.1897 14.4027 61.6969 14.4027C61.0757 14.4027 60.5781 13.895 60.5781 13.2248C60.5781 12.5693 61.0905 12.0469 61.6869 12.0469C62.2881 12.0469 62.7565 12.5397 62.7565 13.1755ZM61.6869 12.4855C61.3861 12.4855 61.1349 12.7024 61.0661 13.0474H62.2881C62.2289 12.7171 61.9925 12.4855 61.6869 12.4855Z" fill="#594500"/>
<path id="Vector_20" d="M63.6775 14.3484H63.1895V12.1011H63.5543L63.6427 12.3524H63.6675C63.7315 12.2588 63.9335 12.0469 64.2195 12.0469C64.2983 12.0469 64.3527 12.0518 64.4115 12.0715V12.5545C64.3475 12.5397 64.2883 12.5348 64.2095 12.5348C63.8943 12.5348 63.6775 12.7516 63.6775 13.1114V14.3484Z" fill="#594500"/>
<path id="Vector_21" d="M64.71 14.4031C64.5328 14.4031 64.3996 14.2651 64.3996 14.0926C64.3996 13.9201 64.5328 13.7821 64.71 13.7821C64.8824 13.7821 65.0204 13.9201 65.0204 14.0926C65.0204 14.2651 64.8824 14.4031 64.71 14.4031Z" fill="#594500"/>
<path id="Vector_22" d="M65.7079 11.7914C65.5503 11.7914 65.4219 11.6682 65.4219 11.5056C65.4219 11.338 65.5503 11.2197 65.7079 11.2197C65.8655 11.2197 65.9939 11.338 65.9939 11.5056C65.9939 11.6682 65.8655 11.7914 65.7079 11.7914ZM65.9495 14.3493H65.4615V12.1019H65.9495V14.3493Z" fill="#594500"/>
<path id="Vector_23" d="M67.5055 14.4027C66.8991 14.4027 66.3867 13.8802 66.3867 13.2248C66.3867 12.5693 66.8991 12.0469 67.5055 12.0469C68.1115 12.0469 68.6191 12.5693 68.6191 13.2248C68.6191 13.8802 68.1115 14.4027 67.5055 14.4027ZM67.5055 13.9492C67.8503 13.9492 68.1311 13.6536 68.1311 13.2248C68.1311 12.8009 67.8503 12.5052 67.5055 12.5052C67.1555 12.5052 66.8747 12.8009 66.8747 13.2248C66.8747 13.6536 67.1555 13.9492 67.5055 13.9492Z" fill="#594500"/>
<path id="Vector_24" d="M2.49816e-07 7.41704H1.04602C2.57258 7.41704 3.8101 8.65456 3.8101 10.1811V11.2271H1.61669C1.25863 11.2271 0.312909 11.2271 0 11.2271L2.49816e-07 7.41704Z" fill="#594500"/>
<path id="Vector_25" d="M2.49816e-07 7.41704H1.04602C2.57258 7.41704 3.8101 8.65456 3.8101 10.1811V11.2271H1.61669C1.25863 11.2271 0.312909 11.2271 0 11.2271L2.49816e-07 7.41704Z" fill="#594500"/>
<path id="Vector_26" d="M7.77156 10.402C6.95 10.9403 5.846 11.2276 4.85788 11.2276V6.32935H0C6.35196e-08 5.36055 0.29301 4.41355 0.841972 3.60804C1.39094 2.80253 2.1712 2.1747 3.08409 1.80396C3.99698 1.43323 4.7378 1.32139 5.84516 1.3213C6.95256 1.32126 8.98328 1.32134 9.89592 1.3213V5.37375C9.89596 6.45935 9.98976 7.30875 9.61164 8.20379C9.23348 9.09883 8.59316 9.86383 7.77156 10.402Z" fill="#594500"/>
<path id="Vector_27" d="M7.77156 10.402C6.95 10.9403 5.846 11.2276 4.85788 11.2276V6.32935H0C6.35196e-08 5.36055 0.29301 4.41355 0.841972 3.60804C1.39094 2.80253 2.1712 2.1747 3.08409 1.80396C3.99698 1.43323 4.7378 1.32139 5.84516 1.3213C6.95256 1.32126 8.98328 1.32134 9.89592 1.3213V5.37375C9.89596 6.45935 9.98976 7.30875 9.61164 8.20379C9.23348 9.09883 8.59316 9.86383 7.77156 10.402Z" fill="#594500"/>
</g>
</svg>
