<svg width="57.6804" height="19.8654" viewBox="0 0 57.6804 19.8654" fill="none" xmlns="http://www.w3.org/2000/svg">
<g id="g867">
<path id="path4" d="M8.33543 0.000183193C8.28611 -0.000405042 8.23702 0.000426331 8.18839 0.00263417C6.44383 0.0889087 4.68355 1.9398 4.61282 5.32019H0.565744C0.251407 5.32019 0 5.57126 0 5.88499L0.754376 17.281C0.754376 17.5947 1.59519 19.0301 2.92326 19.0222H13.9094C15.8347 18.7242 16.0783 17.1163 16.0783 16.8026L16.7699 5.88499C16.762 5.57126 16.5026 5.32019 16.1883 5.32019H12.1412C11.6997 1.3996 9.86432 0.018503 8.33543 0.000183193ZM8.34971 0.942126C9.45563 0.960675 10.8098 2.10622 11.1904 5.32019H5.56381C5.62668 2.5594 6.97829 1.00656 8.24349 0.943811C8.27861 0.942095 8.31403 0.941527 8.34971 0.942126ZM8.40158 7.2367C9.24238 7.22684 10.0872 7.49669 10.6088 8.09669C11.0096 8.55159 10.3417 9.2261 9.94088 8.76336C9.19433 7.90846 7.41839 8.02616 6.74257 8.9046C5.78385 10.1673 7.22181 10.8418 8.22769 11.1477C9.61076 11.5634 11.1432 12.332 11.3947 13.9084C11.599 15.1869 10.6089 16.3712 9.38296 16.6065C8.07061 16.8575 6.38102 16.4182 5.46159 15.4378C5.04509 14.9908 5.71306 14.3241 6.12955 14.7712C6.75037 15.4378 7.85061 15.7438 8.74646 15.7203C9.89379 15.6968 10.9074 14.6536 10.263 13.4928C9.36718 11.885 7.14332 12.3398 6.00385 11.0771C5.08442 10.0575 5.5166 8.45748 6.60106 7.74375C7.09614 7.4212 7.74763 7.24437 8.40158 7.2367Z" fill="#594500"/>
<g id="g22">
<path id="path10" d="M24.4946 8.2928C23.5673 7.24182 21.6185 7.21045 20.4869 7.9477C19.4024 8.65358 18.9702 10.2379 19.8896 11.2497C21.0291 12.5046 23.2452 12.0575 24.1489 13.6497C24.8011 14.8026 23.7795 15.8301 22.6401 15.8536C21.7442 15.8771 20.644 15.5634 20.0232 14.9046C19.6067 14.4653 18.9387 15.1242 19.3552 15.5634C20.2747 16.5359 21.9642 16.9752 23.2687 16.7242C24.4946 16.4889 25.4848 15.3124 25.2805 14.0497C25.029 12.481 23.4966 11.7281 22.1135 11.3124C21.1077 11.0144 19.6696 10.3399 20.6283 9.0928C21.3041 8.21437 23.0723 8.10456 23.8267 8.95162C24.2275 9.41437 24.8954 8.7477 24.4946 8.2928Z" fill="#594500"/>
<path id="path12" d="M31.1428 13.0536V16.332C31.1428 16.9516 30.1998 16.9516 30.1998 16.332V13.1163C30.1684 12.481 29.6419 12.1908 29.6262 12.183C28.9504 11.885 27.7323 12.0183 27.0015 12.9673V16.332C27.0015 16.9516 26.0585 16.9516 26.0585 16.332V7.90849C26.0585 7.28888 27.0015 7.28888 27.0015 7.90849V11.6967C28.1645 10.8967 29.6419 10.9908 30.3334 11.4771C30.3256 11.4693 31.1586 11.9399 31.1428 13.0536Z" fill="#594500"/>
<path id="path14" d="M51.3786 13.9634C51.355 12.6693 50.6949 11.5085 49.3197 11.2497C48.1409 11.0301 46.7578 11.6497 46.2549 12.7556C45.7284 13.9007 45.9484 15.4771 46.9857 16.2771C48.1016 17.1399 49.8383 16.8732 50.9857 16.2379C51.52 15.9399 51.0407 15.1242 50.5063 15.4222C49.7833 15.8301 48.8325 16.0261 48.023 15.7595C47.418 15.5556 47.0722 15.0301 46.97 14.4497H50.9071C51.1586 14.434 51.3864 14.2222 51.3786 13.9634ZM47.0015 13.4928C47.0093 13.4536 47.0172 13.4222 47.025 13.3908C47.2529 12.6222 48.023 12.1752 48.8089 12.1516C49.7126 12.1281 50.2155 12.7477 50.3727 13.4928H47.0015Z" fill="#594500"/>
<path id="path16" d="M57.6803 13.9556C57.6568 12.6615 56.9967 11.5007 55.6214 11.2419C54.4427 11.0223 53.0596 11.6419 52.5567 12.7477C52.0302 13.8928 52.2502 15.4693 53.2875 16.2693C54.4034 17.1321 56.1401 16.8654 57.2874 16.2301C57.8218 15.9321 57.3424 15.1164 56.8081 15.4144C56.0851 15.8223 55.1342 16.0183 54.3248 15.7517C53.7197 15.5477 53.3739 15.0223 53.2718 14.4419H57.2088C57.4603 14.4262 57.6803 14.2144 57.6803 13.9556ZM53.3032 13.485C53.3111 13.4458 53.3189 13.4144 53.3268 13.383C53.5547 12.6144 54.3248 12.1673 55.1106 12.1438C56.0144 12.1203 56.5173 12.7399 56.6745 13.485H53.3032Z" fill="#594500"/>
<path id="path18" d="M35.0721 16.8183C33.5239 16.8183 32.2587 15.5555 32.2587 14.0104C32.2587 12.4653 33.5239 11.2026 35.0721 11.2026C36.6202 11.2026 37.8854 12.4653 37.8854 14.0104C37.8854 15.5634 36.6202 16.8183 35.0721 16.8183ZM35.0721 12.2144C34.0819 12.2144 33.2725 13.0222 33.2725 14.0104C33.2725 14.9987 34.0819 15.8065 35.0721 15.8065C36.0622 15.8065 36.8716 14.9987 36.8716 14.0104C36.8638 13.0222 36.0622 12.2144 35.0721 12.2144Z" fill="#594500"/>
<path id="path20" d="M42.0499 11.2026C41.2169 11.2026 40.4625 11.5712 39.9517 12.1438V11.4692C39.9517 10.8653 39.0087 10.8575 39.0087 11.4692V19.4065C39.0087 20.0183 39.9517 20.0183 39.9517 19.4065V15.8692C40.4704 16.4496 41.2169 16.8104 42.0499 16.8104C43.598 16.8104 44.8632 15.5555 44.8632 14.0026C44.8632 12.4653 43.6059 11.2026 42.0499 11.2026ZM42.0499 15.8065C41.0598 15.8065 40.2504 14.9987 40.2504 14.0104C40.2504 13.1242 40.9026 12.3791 41.7592 12.2379C41.7592 12.2379 41.767 12.2379 41.7749 12.2379C41.8613 12.2222 41.9556 12.2143 42.0499 12.2143C42.7808 12.2143 43.4173 12.6536 43.6923 13.2889V13.2967C43.7866 13.5163 43.8417 13.7594 43.8417 14.0104C43.8495 14.9987 43.0401 15.8065 42.0499 15.8065Z" fill="#594500"/>
</g>
</g>
</svg>
